<svg xmlns="http://www.w3.org/2000/svg" viewBox="0 0 585 220"><defs><style>.cls-1{fill:none;stroke:#000;stroke-miterlimit:10;stroke-width:5px;}</style></defs><g id="Layer_2" data-name="Layer 2"><g id="Layer_1-2" data-name="Layer 1"><path d="M82.23,33.65H94.1q12.06,0,17.52,5.94t5.46,19q0,12.06-5.27,17.68T95.24,81.89h-4.5v44.44H82.23Zm8.51,7.55V74.34h4.63q7.11,0,10.19-3.94t3.08-13q0-8.43-3.37-12.34T94.74,41.2Z"/><path d="M135.89,33.65h10.29q13.32,0,18.88,5.56T170.62,58q0,11-4.19,16.7t-13,6.28l20.12,45.39h-8.82L144.4,78.46v47.87h-8.51Zm8.51,7.81V75h4q7,0,10.28-4t3.24-12.67q0-8.94-3.17-12.91t-10.35-4Z"/><path d="M187.53,80.05q0-24.37,5.58-36T210.5,32.44q11.82,0,17.43,11.62t5.62,36q0,24.38-5.62,35.9T210.5,127.47q-11.81,0-17.39-11.52T187.53,80.05Zm23-39.8q-7.35,0-10.82,9.55t-3.46,30.12q0,20.56,3.46,30.19t10.82,9.61q7.44,0,10.89-9.49t3.46-30.31q0-20.74-3.46-30.21T210.5,40.25Z"/><path d="M260.23,41.2H245.76V33.65h37.32V41.2H268.67v85.13h-8.44Z"/><path d="M300.12,33.65h29.14v7.81H308.63V74.85H329V82.4H308.63v36.12h21.26v7.81H300.12Z"/><path d="M351.5,33.65h10.28q13.34,0,18.89,5.56T386.22,58q0,11-4.19,16.7t-12.95,6.28l20.12,45.39h-8.82L360,78.46v47.87h-8.5Zm8.5,7.81V75h4q7,0,10.29-4t3.23-12.67q0-8.94-3.17-12.91c-2.12-2.65-5.56-4-10.35-4Z"/><path d="M403.13,80.05q0-24.37,5.59-36t17.39-11.62q11.81,0,17.42,11.62t5.62,36q0,24.38-5.62,35.9t-17.42,11.52q-11.81,0-17.39-11.52T403.13,80.05Zm23-39.8q-7.37,0-10.82,9.55t-3.46,30.12q0,20.56,3.46,30.19t10.82,9.61q7.42,0,10.89-9.49t3.46-30.31q0-20.74-3.46-30.21T426.11,40.25Z"/><path d="M469.81,33.65h7.3l20.94,63.41q.45,1.34,1.78,6.51t3.3,13q-1-8.31-1.49-17t-.48-18V33.65h7.3v92.68h-7.3l-20.44-62.4q-1.39-4.44-2.79-9.43T475,43.23q1.08,9.84,1.59,18.54T477.11,78v48.37h-7.3Z"/><path d="M81.73,147.36h8.7a21.67,21.67,0,0,1,6,.71,11.67,11.67,0,0,1,4.32,2.29,15.07,15.07,0,0,1,4.07,5.39,16.29,16.29,0,0,1,1.45,6.83,16.77,16.77,0,0,1-1.6,7.38,13.87,13.87,0,0,1-4.51,5.42,12.79,12.79,0,0,1-4.18,2,29.87,29.87,0,0,1-6.93.59H81.73Zm3,2.91v24.78h6.23q5.83,0,9-3.28t3.15-9.28A14.17,14.17,0,0,0,102,157a11.49,11.49,0,0,0-3.07-4.26,8.9,8.9,0,0,0-3.34-1.86,19.72,19.72,0,0,0-5.37-.56Z"/><path d="M166.28,152.12h-3v-4.76h3Zm-3,25.81v-23.1h3v23.1Z"/><path d="M228.33,179.82a5.79,5.79,0,0,0,2.44,3.14,7.86,7.86,0,0,0,4.28,1.12,8.14,8.14,0,0,0,6.33-2.63,10,10,0,0,0,2.38-7v-.61a11.72,11.72,0,0,1-3.82,3.46,9.79,9.79,0,0,1-4.72,1.16,11.69,11.69,0,0,1-8.65-3.47,12.55,12.55,0,0,1,0-17.23A12.24,12.24,0,0,1,240,155.33a10.57,10.57,0,0,1,3.77,3.28v-3.78h2.9v19.28q0,6-3,9.44a10.66,10.66,0,0,1-8.37,3.41,11.54,11.54,0,0,1-6.74-2,8.64,8.64,0,0,1-3.63-5.19Zm-2.06-13.63a9.52,9.52,0,0,0,2.57,6.78,8.24,8.24,0,0,0,6.21,2.73,8.14,8.14,0,0,0,6-2.74,9,9,0,0,0,2.62-6.43,9.56,9.56,0,0,0-2.58-6.74,8,8,0,0,0-6.09-2.8,8.32,8.32,0,0,0-6.19,2.66A9,9,0,0,0,226.27,166.19Z"/><path d="M307.58,152.12h-3v-4.76h3Zm-3,25.81v-23.1h3v23.1Z"/><path d="M367.7,177.93V157.81h-4.38v-3h4.38v-7.47h3v7.47h4.39v3h-4.39v20.12Z"/><path d="M450.25,174.27a9.4,9.4,0,0,1-3.75,3.13,11.54,11.54,0,0,1-5.09,1.14,11.3,11.3,0,0,1-8.46-3.48,12.6,12.6,0,0,1,.07-17.25,11.67,11.67,0,0,1,8.64-3.48,11,11,0,0,1,4.89,1.08,9.7,9.7,0,0,1,3.7,3.12v-3.7h2.9v23.1h-2.9Zm0-8a9,9,0,0,0-2.62-6.41,8.14,8.14,0,0,0-6.05-2.74,8.41,8.41,0,0,0-6.33,2.74,9.42,9.42,0,0,0-2.62,6.79,8.94,8.94,0,0,0,2.61,6.52,8.44,8.44,0,0,0,6.25,2.66,8.12,8.12,0,0,0,6.14-2.81A9.52,9.52,0,0,0,450.25,166.23Z"/><path d="M505.19,177.93V147.36h3v30.57Z"/><rect class="cls-1" x="2.5" y="2.5" width="580" height="215"/></g></g></svg>