<svg xmlns="http://www.w3.org/2000/svg" viewBox="0 0 173.01 69.47"><defs><style>.cls-1{fill:#fff;}</style></defs><g id="Layer_2" data-name="Layer 2"><g id="Layer_1-2" data-name="Layer 1"><path class="cls-1" d="M172.73,37a3.74,3.74,0,0,1-.12.45c0,.14-.09.29-.14.44s-.11.29-.17.44a9.19,9.19,0,0,1-.62,1.26c-.08.14-.17.27-.26.41a8,8,0,0,1-.57.77,9.06,9.06,0,0,1-.66.73,10.17,10.17,0,0,1-1.05.92c.25-.19.49-.38.72-.59l-24.79,24.8a9.61,9.61,0,1,1-13.6-13.59l8.72-8.72H9.61a9.61,9.61,0,1,1,0-19.22H140.19l-8.72-8.72a9.61,9.61,0,1,1,13.6-13.59l24.79,24.8.33.32a9.4,9.4,0,0,1,2.11,3.18c.06.15.12.29.17.44s.1.29.14.44a3.74,3.74,0,0,1,.12.45A9.59,9.59,0,0,1,172.73,37Z"/></g></g></svg>