<svg xmlns="http://www.w3.org/2000/svg" xmlns:xlink="http://www.w3.org/1999/xlink" viewBox="0 0 1920 1080"><defs><style>.cls-1{fill:url(#linear-gradient);}.cls-2{font-size:48px;fill:#fff;font-family:Poppins-Light, Poppins;font-weight:300;}.cls-3{letter-spacing:0.12em;}.cls-4{letter-spacing:0.39em;}.cls-5{letter-spacing:0.39em;}.cls-6{letter-spacing:0.29em;}.cls-7{letter-spacing:0.29em;}.cls-8{letter-spacing:0.29em;}</style><linearGradient id="linear-gradient" y1="540" x2="1920" y2="540" gradientUnits="userSpaceOnUse"><stop offset="0" stop-color="#0f2027"/><stop offset="0.51" stop-color="#203a43"/><stop offset="1" stop-color="#2c5364"/></linearGradient></defs><g id="Layer_2" data-name="Layer 2"><g id="Layer_1-2" data-name="Layer 1"><rect class="cls-1" width="1920" height="1080"/><text class="cls-2" transform="translate(116 767.31)">Our<tspan class="cls-3" x="85.58" y="0"> </tspan><tspan x="104.44" y="0">custom</tspan><tspan class="cls-3" x="285.68" y="0"> </tspan><tspan x="304.54" y="0">software</tspan><tspan class="cls-3" x="511.27" y="0"> </tspan><tspan x="530.13" y="0">solutions</tspan><tspan class="cls-3" x="740.55" y="0"> </tspan><tspan x="759.41" y="0">are</tspan><tspan class="cls-3" x="839.04" y="0"> </tspan><tspan x="857.89" y="0">engineered </tspan><tspan x="0" y="57.6">to</tspan><tspan class="cls-4" x="47.9" y="57.6"> </tspan><tspan x="79.62" y="57.6">streamline</tspan><tspan class="cls-4" x="332.1" y="57.6"> </tspan><tspan x="363.82" y="57.6">your</tspan><tspan class="cls-5" x="468.55" y="57.6"> </tspan><tspan x="500.27" y="57.6">business</tspan><tspan class="cls-4" x="707.72" y="57.6"> </tspan><tspan x="739.44" y="57.6">operations,</tspan><tspan class="cls-4" x="1004.35" y="57.6"> </tspan><tspan x="1036.07" y="57.6">and </tspan><tspan x="0" y="115.2">give</tspan><tspan class="cls-6" x="99.5" y="115.2"> </tspan><tspan x="126.53" y="115.2">you</tspan><tspan class="cls-6" x="213.89" y="115.2"> </tspan><tspan x="240.92" y="115.2">the</tspan><tspan class="cls-7" x="318.25" y="115.2"> </tspan><tspan x="345.28" y="115.2">competitive</tspan><tspan class="cls-8" x="629.1" y="115.2"> </tspan><tspan x="656.13" y="115.2">edge</tspan><tspan class="cls-7" x="780.64" y="115.2"> </tspan><tspan x="807.67" y="115.2">to</tspan><tspan class="cls-7" x="855.58" y="115.2"> </tspan><tspan x="882.61" y="115.2">drive</tspan><tspan class="cls-8" x="999.48" y="115.2"> </tspan><tspan x="1026.51" y="115.2">your </tspan><tspan x="0" y="172.8">business forward.</tspan></text></g></g></svg>